<svg height="633.333" width="571.896" xmlns="http://www.w3.org/2000/svg" xmlns:xlink="http://www.w3.org/1999/xlink"><symbol id="a" height="500" width="500" xmlns:xlink="http://www.w3.org/1999/xlink"><g stroke="#000" stroke-width=".3" transform="matrix(8.33333 0 0 8.33333 -489.453 -2.87913)"><path d="m90 45.7143.8264 2.5696 2.5243-.956-1.4937 2.2482 2.3213 1.3776-2.6891.2339.3703 2.6737-1.8595-1.9565-1.8595 1.9565.3703-2.6737-2.6891-.2339 2.3213-1.3776-1.4937-2.2482 2.5243.956z" fill="#fff" fill-rule="evenodd"/><path d="m90 5.71429.8264 2.56958 2.5243-.95597-1.4937 2.24825 2.3213 1.37755-2.6891.2339.3703 2.6737-1.8595-1.9565-1.8595 1.9565.3703-2.6737-2.6891-.2339 2.3213-1.37755-1.4937-2.24825 2.5243.95597z" fill="#fff" fill-rule="evenodd"/><path d="m75 21.9643.8264 2.5696 2.5243-.956-1.4937 2.2483 2.3213 1.3775-2.6891.2339.3703 2.6737-1.8595-1.9565-1.8595 1.9565.3703-2.6737-2.6891-.2339 2.3213-1.3775-1.4937-2.2483 2.5243.956z" fill="#fff" fill-rule="evenodd"/><path d="m103.333 17.9643.827 2.5696 2.524-.956-1.494 2.2483 2.322 1.3775-2.689.2339.37 2.6737-1.86-1.9565-1.859 1.9565.37-2.6737-2.6889-.2339 2.3209-1.3775-1.4934-2.2483 2.5244.956z" fill="#fff" fill-rule="evenodd"/><path d="m96 30 .6531 1.6011 1.7245.1264-1.3209 1.1159.4128 1.6791-1.4695-.9114-1.4695.9114.4128-1.6791-1.3209-1.1159 1.7245-.1264z" fill="#fff" fill-rule="evenodd"/></g></symbol><ellipse cx="239.947998" cy="288.667153" fill="#9b6430" opacity=".85" rx="144" ry="20.000001"/><g fill-rule="evenodd"><path d="m521.432 80.157c.14502 27.715-15.156 52.254-31.323 70.009-23.385 25.478-59.327 41.934-87.764 55.357 48.067-4.18599 109.344-16.961 135.76-53.264 13.208-18.188 27.426-45.903 22.9511-75.206-3.82501-25.261-29.808-40.273-57.379-39.696 7.50702 13.93 17.611 23.096 17.755 42.8zm-266.25 192.2c2.59799 2.237 4.47501 10.754 8.29901 8.29999-5.70102-7.36099 1.37198-17.466 1.08298-26.055 22.374-25.839 50.738-43.017 82.495-59.544 31.396-16.455 65.102-29.808 89.785-53.265.21698-1.299 1.58798-2.16499-1.08301-2.093-54.853 44.894-176.394 37.964-180.579 132.657zm-61.638-20.93c-34.644 7.50699-95.774 4.61899-123.201 20.931-19.776 16.455 3.104 28.148 11.476 43.81 8.372 15.734 13.568 35.582 19.848 53.265 6.35201 17.899 12.27 36.448 18.838 54.348 9.81501 27.138 20.858 54.131 26.055 83.506 3.537 19.775.938004 37.098 13.568 45.975 31.035 21.797 103.859 14.724 137.854 1.01099 4.547-10.394 9.09399-20.786 10.393-34.428 21.292-.504944 23.962-23.456 35.51-35.51 5.702-5.98999 17.178-11.836 26.128-18.837 24.25-18.91 57.956-48.357 60.554-84.589 1.44299-20.064-6.85602-44.531-25.044-52.182-35.077-14.796-27.932 29.88-40.707 40.706 2.38199-16.672 8.806-29.447 8.301-49.078-.649994-5.19702-9.52701-2.237-10.394-7.29001 9.31097-9.599 29.592-7.578 27.138-26.127-1.371-10.177-19.126-18.26-33.417-22.951-24.034-7.867-49.367-10.683-77.299-9.383-4.90802 3.75299-9.67102 7.72299-10.393 15.661 24.611 4.90799 58.389 6.35199 83.506 7.28998-18.982-7.866-45.831-7.79401-67.845-12.558 31.829.64798 63.875 2.30899 80.402 16.744-24.034 23.673-80.186 23.096-130.563 20.858-36.736-1.58801-89.496 1.44299-121.107-8.37201-8.806-2.67099-23.963-7.28998-17.756-19.776 4.259.289001 4.187 7.29001 9.455 8.30002 3.465.722992 14.579-4.83502 20.858-6.27902 23.673-5.12399 52.615-3.46399 75.134-6.20697-1.229-3.46503.503006-20.498-7.29199-18.838zm278.81-253.765c10.682 25.478-1.29901 60.915-10.465 72.029-22.303 27.066-56.802 44.1-100.251 56.441-20.425 5.77299-42.077 9.31099-61.564 16.672-31.829 12.053-68.927 30.313-82.495 58.533-12.919 26.921-24.034 84.732 10.465 91.878.216995-7.93899-4.40201-13.136-5.268-21.94-3.32001-33.994 10.609-59.256 26.127-76.217 19.486-15.229 44.748-21.652 74.122-27.138 40.707-7.64999 81.702-18.981 110.644-37.603 16.022-10.32 27.715-22.879 44.893-33.417-10.177 33.345-36.015 50.955-63.658 67.845-14.651 9.02101-30.024 19.053-43.882 26.127-14.435 7.36101-33.705 13.135-45.902 21.94-3.681 2.67101-10.682 8.37201-8.37201 10.466 78.381-21.075 181.662-45.037 190.034-134.75 1.51599-16.527-.432983-27.715-7.28897-35.51-2.45401 12.559-5.99002 29.52-14.651 32.406 5.052-20.786 20.064-46.913 11.476-71.02-5.05298-14.291-17.972-25.188-31.323-31.396-1.01099 0-1.228-.793999-2.09399-1.011 3.75 7.509 7.50299 11.046 9.453 15.665zm-382.164 595.294c31.323 17.466 89.353 24.25 143.05 21.94 33.777-1.51599 72.318 1.73199 94.981-13.568-76.36 13.496-170.692 2.45398-238.031-8.37201zm-6.279-294.544c8.517 6.64099 40.273 10.754 49.079 5.26901-27.21.072052-43.088-11.259-55.357-26.127-.650002 0-1.372 0-2.021 0-1.805 6.56708 3.175 16.8171 8.299 20.858zm53.265 24.0341c54.564 7.29004 132.945 11.043 178.56-3.10397-77.587 5.19595-172.857 6.496-228.648-15.662 4.618 16.3839 30.457 16.168 50.088 18.766zm-27.137 13.57c20.569 3.39194 48.356 5.26901 69.937 4.18594-17.25-10.2489-49.151-5.84601-69.937-12.559v8.37308zm1.01 15.661c15.301 5.98999 38.613 3.89694 59.544 4.18701-2.888-9.23807-12.847-4.98001-21.94-5.19702-12.054-.360046-28.365-6.64004-37.604-7.289zm257.951 96.1359c14.579-22.0859 51.604-40.9229 47.996-77.299-.722015-7.50699-5.63-15.3009-11.476-16.7449-26.488-6.42307-27.065 26.9219-45.976 31.3239-11.692 38.7581-32.695 73.7621-41.717 111.798 12.415-21.002 26.345-40.489 51.173-49.078zm-253.766-81.4849c15.085 9.16592 39.553 2.67099 61.638 4.18698-14.29-9.38306-42.583-4.76404-61.638-9.38306zm5.27 20.859c20.281-2.02106 47.707 3.82501 61.564-2.09302-18.982-5.05304-45.325-2.67099-63.658-8.30005-.721001 4.83499 1.588 6.71207 2.094 10.3931zm6.207 16.7449c20.281-.43399 39.623 2.52506 56.439 0-14.29-8.44501-39.479-5.84692-59.543-8.37293-.86599 4.69098 2.454 5.19699 3.10401 8.37293zm6.279 16.6721c14.074-.505066 38.107 5.41293 46.985-3.104-15.878-1.87707-36.593-4.47501-51.172-4.18707 2.23799 1.58807 3.03198 4.62009 4.18698 7.29108zm6.28 17.754c13.857-2.16501 36.664 4.69101 43.881-4.18704-12.846-3.82501-34.282-4.69095-46.984-5.19601 1.73097 2.45505 2.66899 5.63007 3.10298 9.38306zm6.279 16.7449c14.506 2.09305 32.479 1.08304 45.902-1.082-9.45499-9.88901-34.5-.937988-47.996-8.30093-.505005 4.33093 3.03099 4.54694 2.09398 9.38293zm11.474 20.858c16.313-2.09293 38.253 1.37106 47.996-7.289-16.744-1.65994-36.809-.071991-52.182-3.17593-.720993 5.629 3.10399 6.71195 4.18599 10.4649zm3.104 15.662c15.301.577057 39.841 2.59802 49.079-6.27893-15.157-2.16507-35.149.360931-50.089-2.09308-2.38199 2.52506 2.31001 3.89706 1.01001 8.37201zm3.176 14.651c12.631 4.40201 35.943 4.97903 44.893-3.176-14.29-2.09299-30.097-2.599-44.893-4.11398zm2.093 12.487c9.45502 7.14502 37.675 9.67102 49.078 2.09302-13.496-4.90796-33.056-3.82495-49.078-6.20703zm0 21.94c19.054 6.49597 56.584 8.87799 81.412 5.26898 4.61899-.721985 8.806-1.80395 11.477-5.26898-35.438 0-68.566-2.45398-96.064-10.393-.505997 5.052 3.248 5.77399 3.175 10.393zm231.751-168.094c-21.219 14.651-38.901 32.768-42.799 64.74 13.208-4.90692 22.879-13.28 32.334-21.9399.722015-6.92905 5.19601-10.177 10.465-12.559 3.39297-8.29999 10.61-17.6101 7.29001-29.23-3.608.866028-3.96906-1.51504-7.29001-1.01102z" fill="#3b3a4d"/><path d="m371.638 530.337c13.353 1.87701 25.694 4.90802 36.016 9.96002-25.55 4.836-54.853-14.651-76.288-1.08203 17.971 6.13501 44.098 3.96899 59.472 12.558-20.065 4.90802-45.903-8.80499-59.472 4.11401 11.403 2.88702 25.188 3.46399 35.51 7.36102-12.631 5.48499-37.964-1.80402-48.068 6.27899 7.289 6.27899 21.436 1.37097 32.406 2.09399-1.44299 7.578-13.785 4.33002-20.858 6.27801 37.819 2.021 90.29-9.38202 112.736-30.313.21701-5.341-4.11398-6.35205-4.18698-11.476 6.64099 2.31 10.754 9.815 8.37198 18.765-2.237 8.15594-24.033 15.373-37.603 18.838-50.594 12.919-120.459 23.384-187.221 23.096v.432983c-60.049-1.73096-120.747-11.187-166.072-22.879-13.568-3.46503-35.365-10.682-37.531-18.766-2.525-8.94904 1.66-16.455 8.30099-18.765-.072001 5.12402-4.33 6.06299-4.187 11.403 22.446 21.004 74.917 32.408 112.736 30.315-7.07301-1.87701-19.487 1.37103-20.858-6.27899 10.971-.721985 25.189 4.258 32.334-2.09399-10.032-8.01099-35.365-.794006-47.924-6.20703 10.249-3.96899 24.034-4.47498 35.438-7.36096-13.568-12.991-39.334.794006-59.471-4.11401 15.445-8.58899 41.572-6.495 59.471-12.558-21.436-13.569-50.738 5.84601-76.216 1.00995 21.725-10.6089 52.543-12.197 83.578-13.568.28801-19.776-23.096-17.178-40.778-15.662-30.818 2.599-73.474 11.548-89.785 21.941-5.341 3.46399-11.332 11.98-11.476 17.7549-.794 22.9511 35.726 30.6021 56.368 37.603 19.92 6.71198 37.387 10.609 58.461 13.568 12.053 1.66003 22.663 6.85602 34.428 8.30102 18.837 2.52496 44.242 1.01001 62.719 4.258 5.485.937988 10.971 1.37097 16.672 1.51599l-.144-.649c8.806.21698 17.321-.14502 25.55-1.58801 18.477-3.17602 43.882-1.73199 62.719-4.11401 11.765-1.58801 22.375-6.71198 34.428-8.37201 21.075-3.03101 38.541-6.92895 58.461-13.568 20.642-6.92902 57.234-14.651 56.368-37.603-.144989-5.84705-6.06299-14.363-11.476-17.755-12.559-8.08404-40.634-15.157-66.978-19.199-10.538-1.58801-31.829-6.35098-35.582 8.44501-2.45398 9.67102 13.641 7.578 18.909 7.93799.21701.071045.506012.071045.722015.143005z" fill="#ab343f"/></g><use transform="matrix(.41882 0 0 .41882 183.979 261.251)" x="-81.180511" xlink:href="#a" y="162.360962"/></svg>